<svg xmlns="http://www.w3.org/2000/svg">
    <symbol id="time" viewBox="0 0 14 14">
        <path d="M7.00065 0.333496C10.6817 0.333496 13.6673 3.31811 13.6673 7.00016C13.6673 10.6822 10.6817 13.6668 7.00065 13.6668C3.3186 13.6668 0.333984 10.6822 0.333984 7.00016C0.333984 3.31811 3.3186 0.333496 7.00065 0.333496ZM7.00065 1.66683C4.05501 1.66683 1.66732 4.05452 1.66732 7.00016C1.66732 9.9458 4.05501 12.3335 7.00065 12.3335C9.94547 12.3335 12.334 9.9458 12.334 7.00016C12.334 4.05452 9.94547 1.66683 7.00065 1.66683ZM6.55988 3.6976C6.92807 3.6976 7.22655 3.99608 7.22655 4.36426V6.92022L9.73365 7.75742C10.0824 7.87548 10.2694 8.2539 10.1513 8.60265C10.0333 8.9514 9.65486 9.13841 9.30611 9.02034L6.34611 8.01829C6.0754 7.92665 5.89321 7.67264 5.89321 7.38683V4.36426C5.89321 3.99608 6.19169 3.6976 6.55988 3.6976Z"/>
    </symbol>

    <symbol id="heart" viewBox="0 0 20 19">
        <g style="mix-blend-mode:luminosity">
            <path d="M9.64645 2.35355L10 2.70711L10.3536 2.35355C11.2936 1.41346 12.8138 0.5 14.5 0.5C17.2316 0.5 19.5 2.74484 19.5 6C19.5 9.30661 17.7312 11.9341 15.5945 13.9487C13.7003 15.7347 11.5666 16.9937 10.2223 17.7868C10.1456 17.8321 10.0714 17.8759 10 17.9181C9.92859 17.8759 9.85441 17.8321 9.77766 17.7868C8.43342 16.9937 6.29969 15.7347 4.40551 13.9487C2.26881 11.9341 0.5 9.30661 0.5 6C0.5 2.74715 2.80427 0.5 5.5 0.5C7.18616 0.5 8.70636 1.41346 9.64645 2.35355Z"
            />
        </g>
    </symbol>

    <symbol id="star" viewBox="0 0 14 13">
        <path d="M7.2436 10.7877C7.09187 10.7028 6.9069 10.7028 6.75516 10.7877L3.83098 12.4246C3.45868 12.633 3.01321 12.3093 3.09634 11.8908L3.74934 8.60387C3.78323 8.43331 3.72606 8.25739 3.59839 8.13933L1.1377 5.86397C0.824434 5.5743 0.994572 5.0506 1.41827 5.00035L4.74631 4.60564C4.91898 4.58516 5.06861 4.47645 5.14144 4.31856L6.54536 1.27522C6.72408 0.887807 7.27469 0.887807 7.4534 1.27522L8.85732 4.31856C8.93016 4.47645 9.07979 4.58516 9.25245 4.60564L12.5805 5.00035C13.0042 5.0506 13.1743 5.5743 12.8611 5.86397L10.4004 8.13933C10.2727 8.25739 10.2155 8.43331 10.2494 8.60387L10.9024 11.8908C10.9856 12.3093 10.5401 12.633 10.1678 12.4246L7.2436 10.7877Z"
              fill="#FFCD1E"/>
    </symbol>

    <symbol id="bag" viewBox="0 0 16 17">
        <path d="M8 0.25C10.3012 0.25 12.1667 2.11548 12.1667 4.41667H13.6305C14.2806 4.41667 14.5163 4.48435 14.7539 4.61145C14.9916 4.73855 15.1781 4.92506 15.3052 5.16272C15.4323 5.40037 15.5 5.6361 15.5 6.28617V11.4936C15.5 13.1765 15.3163 13.8299 14.9713 14.475C14.6263 15.1201 14.1201 15.6263 13.475 15.9713C12.8299 16.3163 12.1765 16.5 10.4936 16.5H5.50639C3.82348 16.5 3.17005 16.3163 2.52499 15.9713C1.87993 15.6263 1.37368 15.1201 1.0287 14.475C0.683717 13.8299 0.5 13.1765 0.5 11.4936V6.28617C0.5 5.6361 0.567685 5.40037 0.694784 5.16272C0.821883 4.92506 1.0084 4.73855 1.24605 4.61145C1.4837 4.48435 1.71943 4.41667 2.3695 4.41667H3.83333C3.83333 2.11548 5.69881 0.25 8 0.25ZM11.4631 5.875H11.4119C11.2505 5.875 11.1299 5.90401 11.0281 5.95848C10.9262 6.01295 10.8463 6.09288 10.7918 6.19474C10.7373 6.29659 10.7083 6.41714 10.7083 6.5786V6.62973C10.7083 6.7912 10.7373 6.91175 10.7918 7.0136C10.8463 7.11545 10.9262 7.19538 11.0281 7.24985C11.1299 7.30433 11.2505 7.33333 11.4119 7.33333H11.4631C11.6245 7.33333 11.7451 7.30433 11.8469 7.24985C11.9488 7.19538 12.0287 7.11545 12.0832 7.0136C12.1377 6.91175 12.1667 6.7912 12.1667 6.62973V6.5786C12.1667 6.41714 12.1377 6.29659 12.0832 6.19474C12.0287 6.09288 11.9488 6.01295 11.8469 5.95848C11.7451 5.90401 11.6245 5.875 11.4631 5.875ZM4.58806 5.875H4.53694C4.37547 5.875 4.25492 5.90401 4.15307 5.95848C4.05122 6.01295 3.97128 6.09288 3.91681 6.19474C3.86234 6.29659 3.83333 6.41714 3.83333 6.5786V6.62973C3.83333 6.7912 3.86234 6.91175 3.91681 7.0136C3.97128 7.11545 4.05122 7.19538 4.15307 7.24985C4.25492 7.30433 4.37547 7.33333 4.53694 7.33333H4.58806C4.74953 7.33333 4.87008 7.30433 4.97193 7.24985C5.07378 7.19538 5.15372 7.11545 5.20819 7.0136C5.26266 6.91175 5.29167 6.7912 5.29167 6.62973V6.5786C5.29167 6.41714 5.26266 6.29659 5.20819 6.19474C5.15372 6.09288 5.07378 6.01295 4.97193 5.95848C4.87008 5.90401 4.74953 5.875 4.58806 5.875ZM8 1.70833C6.50423 1.70833 5.29167 2.9209 5.29167 4.41667H10.7083C10.7083 2.9209 9.49577 1.70833 8 1.70833Z"/>
    </symbol>

    <symbol id="whatsapp" viewBox="0 0 16 16">
        <path fill-rule="evenodd" clip-rule="evenodd"
              d="M16 8C16 12.4183 12.4183 16 8 16C3.58172 16 0 12.4183 0 8C0 3.58172 3.58172 0 8 0C12.4183 0 16 3.58172 16 8ZM8.17344 9.37673C7.1832 8.69558 6.48295 7.76547 5.92276 6.71519C5.93411 6.70235 5.94481 6.69028 5.95507 6.67871C5.97345 6.65798 5.99044 6.63882 6.0073 6.61958C6.08417 6.5317 6.16156 6.44426 6.23895 6.35682C6.41721 6.15538 6.59548 5.95395 6.76743 5.74726C7.005 5.46166 6.99815 5.19372 6.7361 4.93164C6.37814 4.57361 6.01523 4.22056 5.65231 3.86751C5.47943 3.69933 5.30656 3.53115 5.13421 3.36243C4.94458 3.17679 4.59597 3.12566 4.37101 3.30275C4.31644 3.34571 4.25818 3.38394 4.1999 3.42218C4.16069 3.44792 4.12146 3.47366 4.08333 3.50086C3.71632 3.76265 3.47008 4.11276 3.35021 4.54531C3.17335 5.18342 3.14349 5.82691 3.30996 6.47372C3.50538 7.23295 3.88807 7.89734 4.34071 8.52774C4.7664 9.12057 5.27398 9.63999 5.78139 10.1592C5.86081 10.2405 5.94023 10.3218 6.01933 10.4033C6.6482 11.0516 7.33213 11.6346 8.11133 12.0981C9.01239 12.634 9.96429 12.9331 11.0302 12.7552C11.6907 12.645 12.2306 12.3628 12.5906 11.7813C12.5942 11.7755 12.5977 11.7697 12.6013 11.7639C12.6315 11.715 12.6619 11.6659 12.6968 11.6205C12.862 11.406 12.8155 11.0766 12.6519 10.9072C12.6027 10.8563 12.5535 10.8054 12.5044 10.7544C12.0176 10.2503 11.5308 9.74609 11.0329 9.25305C10.7886 9.0111 10.5191 9.01231 10.2549 9.23158C9.95821 9.47779 9.67043 9.73497 9.38314 9.99225C9.3232 10.0459 9.28064 10.0616 9.20781 10.0161C9.08178 9.93721 8.95394 9.86107 8.82612 9.78494C8.60537 9.65346 8.38467 9.52201 8.17344 9.37673Z"
              fill="#26AD4F"/>
    </symbol>

    <symbol id="location" viewBox="0 0 14 14">
        <path d="M13.467 0.931611L9.28839 13.4683C9.26689 13.5332 9.22595 13.5899 9.17113 13.6307C9.11631 13.6716 9.05026 13.6945 8.98192 13.6966C8.91359 13.6986 8.84629 13.6796 8.78913 13.6421C8.73198 13.6046 8.68773 13.5504 8.66239 13.4869L6.33373 7.66494L0.433732 4.71494C0.373652 4.68492 0.324043 4.63746 0.291403 4.57876C0.258762 4.52006 0.244615 4.45288 0.250812 4.386C0.257009 4.31913 0.283263 4.25568 0.326135 4.20399C0.369005 4.15229 0.426493 4.11474 0.491065 4.09628L13.0597 0.504944C13.1181 0.488309 13.1799 0.487937 13.2385 0.503868C13.2971 0.5198 13.3502 0.55143 13.3921 0.595344C13.4341 0.639259 13.4632 0.69379 13.4764 0.753051C13.4896 0.812313 13.4864 0.874054 13.467 0.931611Z"/>
    </symbol>

    <symbol id="arrow" viewBox="0 0 12 6">
        <path d="M6 4.18934L1.8413 0.21967C1.53446 -0.0732237 1.03697 -0.0732238 0.730131 0.219669C0.423291 0.512563 0.423291 0.987437 0.730131 1.28033L5.44442 5.78033C5.75126 6.07322 6.24874 6.07322 6.55558 5.78033L11.2699 1.28033C11.5767 0.987438 11.5767 0.512564 11.2699 0.219671C10.963 -0.0732225 10.4655 -0.0732226 10.1587 0.219671L6 4.18934Z"/>
    </symbol>

    <symbol id="opening-hours" viewBox="0 0 17 18">
        <path d="M8.71401 0.428711C11.0358 0.428711 13.202 1.35912 14.7856 2.94925L14.7854 1.85728L14.7902 1.77398C14.8315 1.41874 15.1334 1.143 15.4997 1.143C15.8942 1.143 16.214 1.46279 16.214 1.85728V4.71442L16.2092 4.79772C16.1679 5.15297 15.866 5.42871 15.4997 5.42871H12.6426L12.5593 5.4239C12.204 5.38264 11.9283 5.08074 11.9283 4.71442C11.9283 4.31994 12.2481 4.00014 12.6426 4.00014L13.8159 4.0004C12.4924 2.64873 10.6701 1.85728 8.71401 1.85728C4.76911 1.85728 1.57115 5.05525 1.57115 9.00014C1.57115 12.945 4.76911 16.143 8.71401 16.143C10.6352 16.143 12.4342 15.3819 13.7656 14.0501C14.0445 13.7711 14.4968 13.771 14.7757 14.0499C15.0547 14.3288 15.0548 14.7811 14.7759 15.0601C13.1792 16.6573 11.0181 17.5716 8.71401 17.5716C3.98014 17.5716 0.142578 13.734 0.142578 9.00014C0.142578 4.26627 3.98014 0.428711 8.71401 0.428711ZM8.35686 4.71442C8.75135 4.71442 9.07115 5.03422 9.07115 5.42871V8.70427L11.0048 10.6379C11.2837 10.9169 11.2837 11.3691 11.0048 11.6481C10.7259 11.927 10.2736 11.927 9.99464 11.6481L7.85179 9.50521C7.71783 9.37126 7.64258 9.18958 7.64258 9.00014V5.42871C7.64258 5.03422 7.96237 4.71442 8.35686 4.71442Z"/>
    </symbol>

    <symbol id="hart" viewBox="0 0 20 19">
        <path d="M14.5 0C17.538 0 20 2.5 20 6C20 13 12.5 17 10 18.5C7.5 17 0 13 0 6C0 2.5 2.5 0 5.5 0C7.36 0 9 1 10 2C11 1 12.64 0 14.5 0Z"/>
    </symbol>

    <symbol id="cart" viewBox="0 0 24 24">
        <path fill-rule="evenodd" clip-rule="evenodd"
              d="M4.5 6.88889H22L19.7802 14.9047C19.4368 16.145 18.3381 17 17.088 17H7.70612C6.27938 17 5.0808 15.8932 4.92325 14.4301L3.8 4H1"/>
        <path d="M4.5 6.88889H22L19.7802 14.9047C19.4368 16.145 18.3381 17 17.088 17H7.70612C6.27938 17 5.0808 15.8932 4.92325 14.4301L3.8 4H1"
              stroke="#979797" stroke-width="2" stroke-linecap="round" stroke-linejoin="round"/>
        <path d="M8 24C9.10457 24 10 23.1046 10 22C10 20.8954 9.10457 20 8 20C6.89543 20 6 20.8954 6 22C6 23.1046 6.89543 24 8 24Z"/>
        <path d="M17 24C18.1046 24 19 23.1046 19 22C19 20.8954 18.1046 20 17 20C15.8954 20 15 20.8954 15 22C15 23.1046 15.8954 24 17 24Z"/>
    </symbol>

    <symbol id="profile" viewBox="0 0 28 24">
        <path fill-rule="evenodd" clip-rule="evenodd"
              d="M19.5101 5.99953C19.5101 8.77473 17.059 11 13.9999 11C10.9418 11 8.4897 8.77473 8.4897 5.99953C8.4897 3.22432 10.9418 1 13.9999 1C17.059 1 19.5101 3.22432 19.5101 5.99953ZM13.9999 23C8.0246 23 2.97949 21.9672 2.97949 17.9824C2.97949 13.9962 8.05629 13 13.9999 13C19.9766 13 25.0203 14.0328 25.0203 18.0176C25.0203 22.0038 19.9435 23 13.9999 23Z"/>
    </symbol>

    <symbol id="tile" viewBox="0 0 20 20">
        <path d="M2.15417 2.15417C1.66602 2.64233 1.66602 3.428 1.66602 4.99935V5.83268C1.66602 7.40403 1.66602 8.1897 2.15417 8.67786C2.64233 9.16602 3.428 9.16602 4.99935 9.16602H5.83268C7.40403 9.16602 8.18971 9.16602 8.67786 8.67786C9.16602 8.1897 9.16602 7.40403 9.16602 5.83268V4.99935C9.16602 3.428 9.16602 2.64233 8.67786 2.15417C8.18971 1.66602 7.40403 1.66602 5.83268 1.66602H4.99935C3.428 1.66602 2.64233 1.66602 2.15417 2.15417Z"
              fill="#26AD4F"/>
        <path d="M2.15417 11.3208C1.66602 11.809 1.66602 12.5947 1.66602 14.166V14.9993C1.66602 16.5707 1.66602 17.3564 2.15417 17.8445C2.64233 18.3327 3.428 18.3327 4.99935 18.3327H5.83268C7.40403 18.3327 8.18971 18.3327 8.67786 17.8445C9.16602 17.3564 9.16602 16.5707 9.16602 14.9993V14.166C9.16602 12.5947 9.16602 11.809 8.67786 11.3208C8.18971 10.8327 7.40403 10.8327 5.83268 10.8327H4.99935C3.428 10.8327 2.64233 10.8327 2.15417 11.3208Z"
              fill="#26AD4F"/>
        <path d="M10.8327 4.99935C10.8327 3.428 10.8327 2.64233 11.3208 2.15417C11.809 1.66602 12.5947 1.66602 14.166 1.66602H14.9994C16.5707 1.66602 17.3564 1.66602 17.8445 2.15417C18.3327 2.64233 18.3327 3.428 18.3327 4.99935V5.83268C18.3327 7.40403 18.3327 8.1897 17.8445 8.67786C17.3564 9.16602 16.5707 9.16602 14.9994 9.16602H14.166C12.5947 9.16602 11.809 9.16602 11.3208 8.67786C10.8327 8.1897 10.8327 7.40403 10.8327 5.83268V4.99935Z"
              fill="#26AD4F"/>
        <path d="M11.3208 11.3208C10.8327 11.809 10.8327 12.5947 10.8327 14.166V14.9993C10.8327 16.5707 10.8327 17.3564 11.3208 17.8445C11.809 18.3327 12.5947 18.3327 14.166 18.3327H14.9994C16.5707 18.3327 17.3564 18.3327 17.8445 17.8445C18.3327 17.3564 18.3327 16.5707 18.3327 14.9993V14.166C18.3327 12.5947 18.3327 11.809 17.8445 11.3208C17.3564 10.8327 16.5707 10.8327 14.9994 10.8327H14.166C12.5947 10.8327 11.809 10.8327 11.3208 11.3208Z"
              fill="#26AD4F"/>
    </symbol>

    <symbol id="fire" viewBox="0 0 16 16">
        <path d="M7.31131 0.0219033C7.79291 0.130759 8.0955 0.611253 7.9871 1.09533C7.93709 1.31834 7.86872 1.50393 7.76887 1.65884C6.36451 3.83754 6.59038 5.27472 7.5273 5.41396C8.44329 5.55008 8.95529 4.96168 8.80773 3.59182C8.77308 3.27025 8.74411 2.99915 8.72081 2.77849C8.69943 2.57605 8.74871 2.37244 8.86021 2.20247C9.12591 1.79743 9.66811 1.68549 10.0712 1.95241C10.5557 2.27317 11.0984 2.81921 11.7184 3.59615C13.4795 5.80301 14.0239 7.73245 13.9992 9.70818C13.9533 13.389 11.2218 16 7.49962 16C3.76174 16 1 13.3734 1 9.69616C1.01901 6.44407 2.78138 2.91079 6.07736 0.547812C6.20501 0.456296 6.37368 0.332449 6.58276 0.176683C6.79164 0.0210661 7.05761 -0.0354402 7.31131 0.0219033Z"
              fill="#F95D77"/>
        <path d="M7.31131 0.0219033C7.79291 0.130759 8.0955 0.611253 7.9871 1.09533C7.93709 1.31834 7.86872 1.50393 7.76887 1.65884C6.36451 3.83754 6.59038 5.27472 7.5273 5.41396C8.44329 5.55008 8.95529 4.96168 8.80773 3.59182C8.77308 3.27025 8.74411 2.99915 8.72081 2.77849C8.69943 2.57605 8.74871 2.37244 8.86021 2.20247C9.12591 1.79743 9.66811 1.68549 10.0712 1.95241C10.5557 2.27317 11.0984 2.81921 11.7184 3.59615C13.4795 5.80301 14.0239 7.73245 13.9992 9.70818C13.9533 13.389 11.2218 16 7.49962 16C3.76174 16 1 13.3734 1 9.69616C1.01901 6.44407 2.78138 2.91079 6.07736 0.547812C6.20501 0.456296 6.37368 0.332449 6.58276 0.176683C6.79164 0.0210661 7.05761 -0.0354402 7.31131 0.0219033ZM5.96008 2.30003C3.5741 4.37346 2.31486 7.1583 2.3 9.7C2.3 12.6356 4.46425 14.6939 7.49962 14.6939C10.5207 14.6939 12.6624 12.6467 12.6993 9.69181C12.7204 7.99782 12.2587 6.36122 10.7041 4.41318C10.4974 4.15417 10.3033 3.92728 10.1229 3.73282C10.2288 5.73647 9.07416 6.96417 7.33708 6.70602C5.57777 6.44457 5.00858 4.58231 5.96008 2.30003Z"/>
    </symbol>

    <symbol id="user-hart" viewBox="0 0 18 18">
        <path d="M11.0019 8.35937C10.7342 8.2254 10.461 8.10998 10.183 8.0133C11.0833 7.30197 11.6667 6.16928 11.6667 4.89583C11.6667 2.74768 10.0066 1 7.96598 1C5.92541 1 4.2653 2.74768 4.2653 4.89583C4.2653 6.17069 4.85001 7.30449 5.75191 8.01568C4.92557 8.30208 4.1502 8.74772 3.47156 9.33536C2.22715 10.4129 1.36192 11.916 1.03531 13.5676C0.932942 14.0851 1.05558 14.6167 1.37172 15.0259C1.6863 15.4331 2.15278 15.6667 2.6515 15.6667H9.35374C9.65431 15.6667 9.89796 15.4102 9.89796 15.0937C9.89796 14.7773 9.65431 14.5208 9.35374 14.5208H2.6515C2.41917 14.5208 2.27901 14.3843 2.21615 14.303C2.10761 14.1624 2.0656 13.9795 2.10089 13.8011C2.66565 10.9453 5.05847 8.8591 7.82171 8.78874C7.86958 8.79069 7.91766 8.79167 7.96598 8.79167C8.01477 8.79167 8.06334 8.79066 8.11167 8.78869C8.95847 8.8096 9.7729 9.01304 10.5346 9.39426C10.8061 9.53004 11.1307 9.40855 11.2598 9.12276C11.3888 8.83698 11.2734 8.49521 11.0019 8.35937ZM8.09872 7.64231C8.05455 7.64148 8.01031 7.64105 7.96598 7.64105C7.92207 7.64105 7.87815 7.64151 7.83428 7.64237C6.45483 7.56992 5.35374 6.36571 5.35374 4.89583C5.35374 3.37947 6.52557 2.14583 7.96598 2.14583C9.40639 2.14583 10.5782 3.37947 10.5782 4.89583C10.5782 6.36534 9.47769 7.56932 8.09872 7.64231Z"
              fill="#1F2226" stroke="#1F2226" stroke-width="0.2"/>
        <path d="M14.3703 11.566C14.7463 11.214 15.1802 11.0228 15.6639 11.0015L15.7552 10.9995C16.8076 10.9995 17.6667 11.8529 17.6667 12.9053C17.6667 13.8915 17.3216 14.3808 15.809 15.5923L15.4979 15.8389L14.7099 16.4531C14.4885 16.6256 14.1782 16.6256 13.9568 16.4531L13.0608 15.7539C11.3758 14.4225 11 13.9344 11 12.9053C11 11.8529 11.8591 10.9995 12.9115 10.9995C13.4249 10.9995 13.8875 11.1915 14.2908 11.5645L14.3313 11.6038L14.3703 11.566Z"
              stroke="#1F2226" stroke-width="1.3" fill="none"/>
    </symbol>

    <symbol id="organizer" viewBox="0 0 16 16">
        <path d="M12.0625 7.1875C12.4077 7.1875 12.6875 6.90768 12.6875 6.5625C12.6875 6.21732 12.4077 5.9375 12.0625 5.9375C11.7173 5.9375 11.4375 6.21732 11.4375 6.5625C11.4375 6.90768 11.7173 7.1875 12.0625 7.1875Z"/>
        <path d="M13.5 1.25H12.6875V0.625C12.6875 0.279813 12.4077 0 12.0625 0C11.7173 0 11.4375 0.279813 11.4375 0.625V1.25H8.59375V0.625C8.59375 0.279813 8.31394 0 7.96875 0C7.62356 0 7.34375 0.279813 7.34375 0.625V1.25H4.53125V0.625C4.53125 0.279813 4.25144 0 3.90625 0C3.56106 0 3.28125 0.279813 3.28125 0.625V1.25H2.5C1.1215 1.25 0 2.3715 0 3.75V13.5C0 14.8785 1.1215 16 2.5 16H7.28125C7.62644 16 7.90625 15.7202 7.90625 15.375C7.90625 15.0298 7.62644 14.75 7.28125 14.75H2.5C1.81075 14.75 1.25 14.1892 1.25 13.5V3.75C1.25 3.06075 1.81075 2.5 2.5 2.5H3.28125V3.125C3.28125 3.47019 3.56106 3.75 3.90625 3.75C4.25144 3.75 4.53125 3.47019 4.53125 3.125V2.5H7.34375V3.125C7.34375 3.47019 7.62356 3.75 7.96875 3.75C8.31394 3.75 8.59375 3.47019 8.59375 3.125V2.5H11.4375V3.125C11.4375 3.47019 11.7173 3.75 12.0625 3.75C12.4077 3.75 12.6875 3.47019 12.6875 3.125V2.5H13.5C14.1892 2.5 14.75 3.06075 14.75 3.75V7.3125C14.75 7.65769 15.0298 7.9375 15.375 7.9375C15.7202 7.9375 16 7.65769 16 7.3125V3.75C16 2.3715 14.8785 1.25 13.5 1.25Z"/>
        <path d="M12.2188 8.4375C10.1337 8.4375 8.4375 10.1337 8.4375 12.2188C8.4375 14.3038 10.1337 16 12.2188 16C14.3038 16 16 14.3038 16 12.2188C16 10.1337 14.3038 8.4375 12.2188 8.4375ZM12.2188 14.75C10.823 14.75 9.6875 13.6145 9.6875 12.2188C9.6875 10.823 10.823 9.6875 12.2188 9.6875C13.6145 9.6875 14.75 10.823 14.75 12.2188C14.75 13.6145 13.6145 14.75 12.2188 14.75Z"/>
        <path d="M13.125 11.5938H12.8438V10.9375C12.8438 10.5923 12.5639 10.3125 12.2188 10.3125C11.8736 10.3125 11.5938 10.5923 11.5938 10.9375V12.2188C11.5938 12.5639 11.8736 12.8438 12.2188 12.8438H13.125C13.4702 12.8438 13.75 12.5639 13.75 12.2188C13.75 11.8736 13.4702 11.5938 13.125 11.5938Z"/>
        <path d="M9.34375 7.1875C9.68893 7.1875 9.96875 6.90768 9.96875 6.5625C9.96875 6.21732 9.68893 5.9375 9.34375 5.9375C8.99857 5.9375 8.71875 6.21732 8.71875 6.5625C8.71875 6.90768 8.99857 7.1875 9.34375 7.1875Z"/>
        <path d="M6.625 9.90625C6.97018 9.90625 7.25 9.62643 7.25 9.28125C7.25 8.93607 6.97018 8.65625 6.625 8.65625C6.27982 8.65625 6 8.93607 6 9.28125C6 9.62643 6.27982 9.90625 6.625 9.90625Z"/>
        <path d="M3.90625 7.1875C4.25143 7.1875 4.53125 6.90768 4.53125 6.5625C4.53125 6.21732 4.25143 5.9375 3.90625 5.9375C3.56107 5.9375 3.28125 6.21732 3.28125 6.5625C3.28125 6.90768 3.56107 7.1875 3.90625 7.1875Z"/>
        <path d="M3.90625 9.90625C4.25143 9.90625 4.53125 9.62643 4.53125 9.28125C4.53125 8.93607 4.25143 8.65625 3.90625 8.65625C3.56107 8.65625 3.28125 8.93607 3.28125 9.28125C3.28125 9.62643 3.56107 9.90625 3.90625 9.90625Z"/>
        <path d="M3.90625 12.625C4.25143 12.625 4.53125 12.3452 4.53125 12C4.53125 11.6548 4.25143 11.375 3.90625 11.375C3.56107 11.375 3.28125 11.6548 3.28125 12C3.28125 12.3452 3.56107 12.625 3.90625 12.625Z"/>
        <path d="M6.625 12.625C6.97018 12.625 7.25 12.3452 7.25 12C7.25 11.6548 6.97018 11.375 6.625 11.375C6.27982 11.375 6 11.6548 6 12C6 12.3452 6.27982 12.625 6.625 12.625Z"/>
        <path d="M6.625 7.1875C6.97018 7.1875 7.25 6.90768 7.25 6.5625C7.25 6.21732 6.97018 5.9375 6.625 5.9375C6.27982 5.9375 6 6.21732 6 6.5625C6 6.90768 6.27982 7.1875 6.625 7.1875Z"/>
    </symbol>

    <symbol id="rose" viewBox="0 0 11 16">
        <path d="M0 15.5313C0 15.7902 0.209875 16 0.46875 16H1.40625C2.73022 16 3.91347 15.3868 4.6875 14.4297V15.5313C4.6875 15.7902 4.89737 16 5.15625 16C5.41513 16 5.625 15.7902 5.625 15.5313V14.4297C6.39903 15.3868 7.58228 16 8.90625 16H9.84375C10.1026 16 10.3125 15.7902 10.3125 15.5313C10.3125 13.9058 9.38834 12.4923 8.03797 11.7881C9.38784 11.105 10.3116 9.73459 10.3116 8.15869C10.3116 8.12203 10.3115 8.66978 10.3125 2.8125C10.3125 1.26169 9.05081 0 7.5 0C7.14422 0 6.79994 0.0651563 6.47372 0.193406C6.06362 0.0670312 5.61669 3.125e-05 5.15625 3.125e-05C4.69581 3.125e-05 4.24884 0.0670312 3.83878 0.193438C3.51256 0.0651875 3.16828 3.125e-05 2.8125 3.125e-05C1.26169 3.125e-05 0 1.26172 0 2.81253V8.095C0 9.70256 0.911875 11.1028 2.26263 11.7944C0.91875 12.5007 0 13.9106 0 15.5313ZM9.34163 15.0625H8.90625C7.25609 15.0625 5.88653 13.8381 5.65837 12.25H6.09375C7.74391 12.25 9.11347 13.4745 9.34163 15.0625ZM9.375 8.15872C9.37409 9.89763 7.90203 11.3123 6.09244 11.3123C4.03547 11.3123 2.81159 10.6263 2.81159 8.50003C2.81159 7.21856 3.8225 6.85394 5.94662 6.56159C7.19403 6.38997 8.48778 5.91703 9.375 5.00253V8.15872ZM5.258 5.70525C4.70709 5.58278 3.7245 5.49119 2.8125 5.09881V3.99344C3.47703 4.47344 4.33619 4.68753 5.15625 4.68753C5.97628 4.68753 6.83534 4.4735 7.5 3.99344V5.15628C7.5 5.16006 7.50047 5.16372 7.50056 5.16747C6.62769 5.56025 5.85344 5.62175 5.27944 5.71119C5.27228 5.70922 5.26531 5.70688 5.258 5.70525V5.70525ZM9.375 2.81172L9.37422 3.26534C9.17231 3.82759 8.83606 4.25963 8.4375 4.59169V2.34378C8.4375 1.83644 8.22231 1.36041 7.82269 0.965906C8.70325 1.11934 9.375 1.88866 9.375 2.81172V2.81172ZM7.5 2.34378C7.5 2.79591 7.12238 3.20638 6.55003 3.46559C6.55797 3.40522 6.5625 3.34378 6.5625 3.28128C6.5625 2.50587 5.93166 1.87503 5.15625 1.87503C4.89737 1.87503 4.6875 2.08491 4.6875 2.34378C4.6875 2.60266 4.89737 2.81253 5.15625 2.81253C5.41472 2.81253 5.625 3.02281 5.625 3.28128C5.625 3.53975 5.41472 3.75003 5.15625 3.75003C3.88581 3.75003 2.8125 3.10606 2.8125 2.34378C2.8125 1.5815 3.88581 0.937531 5.15625 0.937531C6.42669 0.937531 7.5 1.5815 7.5 2.34378ZM2.48981 0.965906C2.09019 1.36041 1.875 1.83644 1.875 2.34378V4.53928C1.47784 4.21256 1.14434 3.78062 0.9375 3.20203V2.81253C0.9375 1.88872 1.60925 1.11938 2.48981 0.965906ZM0.9375 8.095V4.94944C1.57775 5.61113 2.39906 6.00459 3.28966 6.25491C3.26556 6.26669 3.24112 6.27806 3.21744 6.29034C2.32603 6.752 1.87406 7.49544 1.87406 8.50003C1.87406 9.59809 2.17162 10.3639 2.57509 10.8981C1.58391 10.339 0.9375 9.28434 0.9375 8.095V8.095ZM4.21875 12.25H4.65413C4.426 13.8381 3.05644 15.0625 1.40625 15.0625H0.970875C1.19903 13.4745 2.56859 12.25 4.21875 12.25Z"/>
    </symbol>

    <symbol id="percent" viewBox="0 0 16 16">
        <path d="M14.8074 1.19268C14.5508 0.935774 14.1345 0.935774 13.8779 1.19268L1.1926 13.878C0.935801 14.1346 0.935801 14.5506 1.1926 14.8073C1.32094 14.9358 1.48922 15 1.65739 15C1.82556 15 1.99384 14.9358 2.12208 14.8073L14.8074 2.12204C15.0642 1.86536 15.0642 1.44936 14.8074 1.19268Z"
              stroke-width="0.4"/>
        <path d="M4 1C2.34588 1 1 2.34596 1 4.00005C1 5.65414 2.34588 7 4 7C5.65423 7 7 5.65404 7 3.99995C7 2.34586 5.65412 1 4 1ZM4 5.73678C3.04226 5.73678 2.26314 4.95756 2.26314 3.99995C2.26314 3.04233 3.04237 2.26312 4 2.26312C4.95774 2.26312 5.73686 3.04233 5.73686 3.99995C5.73686 4.95756 4.95774 5.73678 4 5.73678Z"
              stroke-width="0.4"/>
        <path d="M12 9C10.3459 9 9 10.3459 9 12C9 13.6541 10.3459 15 12 15C13.6541 15 15 13.6542 15 12C15 10.3458 13.6541 9 12 9ZM12 13.7368C11.0423 13.7368 10.2631 12.9575 10.2631 11.9999C10.2631 11.0423 11.0424 10.263 12 10.263C12.9576 10.263 13.7369 11.0423 13.7369 11.9999C13.7369 12.9575 12.9577 13.7368 12 13.7368Z"
              stroke-width="0.4"/>
    </symbol>

</svg>
