<svg xmlns="http://www.w3.org/2000/svg">
    <symbol id="time" viewBox="0 0 14 14">
        <path d="M7.00065 0.333496C10.6817 0.333496 13.6673 3.31811 13.6673 7.00016C13.6673 10.6822 10.6817 13.6668 7.00065 13.6668C3.3186 13.6668 0.333984 10.6822 0.333984 7.00016C0.333984 3.31811 3.3186 0.333496 7.00065 0.333496ZM7.00065 1.66683C4.05501 1.66683 1.66732 4.05452 1.66732 7.00016C1.66732 9.9458 4.05501 12.3335 7.00065 12.3335C9.94547 12.3335 12.334 9.9458 12.334 7.00016C12.334 4.05452 9.94547 1.66683 7.00065 1.66683ZM6.55988 3.6976C6.92807 3.6976 7.22655 3.99608 7.22655 4.36426V6.92022L9.73365 7.75742C10.0824 7.87548 10.2694 8.2539 10.1513 8.60265C10.0333 8.9514 9.65486 9.13841 9.30611 9.02034L6.34611 8.01829C6.0754 7.92665 5.89321 7.67264 5.89321 7.38683V4.36426C5.89321 3.99608 6.19169 3.6976 6.55988 3.6976Z"/>
    </symbol>

    <symbol id="heart" viewBox="0 0 20 19">
        <g style="mix-blend-mode:luminosity">
            <path d="M9.64645 2.35355L10 2.70711L10.3536 2.35355C11.2936 1.41346 12.8138 0.5 14.5 0.5C17.2316 0.5 19.5 2.74484 19.5 6C19.5 9.30661 17.7312 11.9341 15.5945 13.9487C13.7003 15.7347 11.5666 16.9937 10.2223 17.7868C10.1456 17.8321 10.0714 17.8759 10 17.9181C9.92859 17.8759 9.85441 17.8321 9.77766 17.7868C8.43342 16.9937 6.29969 15.7347 4.40551 13.9487C2.26881 11.9341 0.5 9.30661 0.5 6C0.5 2.74715 2.80427 0.5 5.5 0.5C7.18616 0.5 8.70636 1.41346 9.64645 2.35355Z"
                  />
        </g>
    </symbol>

    <symbol id="star" viewBox="0 0 14 13">
        <path d="M7.2436 10.7877C7.09187 10.7028 6.9069 10.7028 6.75516 10.7877L3.83098 12.4246C3.45868 12.633 3.01321 12.3093 3.09634 11.8908L3.74934 8.60387C3.78323 8.43331 3.72606 8.25739 3.59839 8.13933L1.1377 5.86397C0.824434 5.5743 0.994572 5.0506 1.41827 5.00035L4.74631 4.60564C4.91898 4.58516 5.06861 4.47645 5.14144 4.31856L6.54536 1.27522C6.72408 0.887807 7.27469 0.887807 7.4534 1.27522L8.85732 4.31856C8.93016 4.47645 9.07979 4.58516 9.25245 4.60564L12.5805 5.00035C13.0042 5.0506 13.1743 5.5743 12.8611 5.86397L10.4004 8.13933C10.2727 8.25739 10.2155 8.43331 10.2494 8.60387L10.9024 11.8908C10.9856 12.3093 10.5401 12.633 10.1678 12.4246L7.2436 10.7877Z" fill="#FFCD1E"/>
    </symbol>

    <symbol id="bag" viewBox="0 0 16 17">
        <path d="M8 0.25C10.3012 0.25 12.1667 2.11548 12.1667 4.41667H13.6305C14.2806 4.41667 14.5163 4.48435 14.7539 4.61145C14.9916 4.73855 15.1781 4.92506 15.3052 5.16272C15.4323 5.40037 15.5 5.6361 15.5 6.28617V11.4936C15.5 13.1765 15.3163 13.8299 14.9713 14.475C14.6263 15.1201 14.1201 15.6263 13.475 15.9713C12.8299 16.3163 12.1765 16.5 10.4936 16.5H5.50639C3.82348 16.5 3.17005 16.3163 2.52499 15.9713C1.87993 15.6263 1.37368 15.1201 1.0287 14.475C0.683717 13.8299 0.5 13.1765 0.5 11.4936V6.28617C0.5 5.6361 0.567685 5.40037 0.694784 5.16272C0.821883 4.92506 1.0084 4.73855 1.24605 4.61145C1.4837 4.48435 1.71943 4.41667 2.3695 4.41667H3.83333C3.83333 2.11548 5.69881 0.25 8 0.25ZM11.4631 5.875H11.4119C11.2505 5.875 11.1299 5.90401 11.0281 5.95848C10.9262 6.01295 10.8463 6.09288 10.7918 6.19474C10.7373 6.29659 10.7083 6.41714 10.7083 6.5786V6.62973C10.7083 6.7912 10.7373 6.91175 10.7918 7.0136C10.8463 7.11545 10.9262 7.19538 11.0281 7.24985C11.1299 7.30433 11.2505 7.33333 11.4119 7.33333H11.4631C11.6245 7.33333 11.7451 7.30433 11.8469 7.24985C11.9488 7.19538 12.0287 7.11545 12.0832 7.0136C12.1377 6.91175 12.1667 6.7912 12.1667 6.62973V6.5786C12.1667 6.41714 12.1377 6.29659 12.0832 6.19474C12.0287 6.09288 11.9488 6.01295 11.8469 5.95848C11.7451 5.90401 11.6245 5.875 11.4631 5.875ZM4.58806 5.875H4.53694C4.37547 5.875 4.25492 5.90401 4.15307 5.95848C4.05122 6.01295 3.97128 6.09288 3.91681 6.19474C3.86234 6.29659 3.83333 6.41714 3.83333 6.5786V6.62973C3.83333 6.7912 3.86234 6.91175 3.91681 7.0136C3.97128 7.11545 4.05122 7.19538 4.15307 7.24985C4.25492 7.30433 4.37547 7.33333 4.53694 7.33333H4.58806C4.74953 7.33333 4.87008 7.30433 4.97193 7.24985C5.07378 7.19538 5.15372 7.11545 5.20819 7.0136C5.26266 6.91175 5.29167 6.7912 5.29167 6.62973V6.5786C5.29167 6.41714 5.26266 6.29659 5.20819 6.19474C5.15372 6.09288 5.07378 6.01295 4.97193 5.95848C4.87008 5.90401 4.74953 5.875 4.58806 5.875ZM8 1.70833C6.50423 1.70833 5.29167 2.9209 5.29167 4.41667H10.7083C10.7083 2.9209 9.49577 1.70833 8 1.70833Z"/>
    </symbol>

    <symbol id="whatsapp" viewBox="0 0 16 16">
        <path fill-rule="evenodd" clip-rule="evenodd" d="M16 8C16 12.4183 12.4183 16 8 16C3.58172 16 0 12.4183 0 8C0 3.58172 3.58172 0 8 0C12.4183 0 16 3.58172 16 8ZM8.17344 9.37673C7.1832 8.69558 6.48295 7.76547 5.92276 6.71519C5.93411 6.70235 5.94481 6.69028 5.95507 6.67871C5.97345 6.65798 5.99044 6.63882 6.0073 6.61958C6.08417 6.5317 6.16156 6.44426 6.23895 6.35682C6.41721 6.15538 6.59548 5.95395 6.76743 5.74726C7.005 5.46166 6.99815 5.19372 6.7361 4.93164C6.37814 4.57361 6.01523 4.22056 5.65231 3.86751C5.47943 3.69933 5.30656 3.53115 5.13421 3.36243C4.94458 3.17679 4.59597 3.12566 4.37101 3.30275C4.31644 3.34571 4.25818 3.38394 4.1999 3.42218C4.16069 3.44792 4.12146 3.47366 4.08333 3.50086C3.71632 3.76265 3.47008 4.11276 3.35021 4.54531C3.17335 5.18342 3.14349 5.82691 3.30996 6.47372C3.50538 7.23295 3.88807 7.89734 4.34071 8.52774C4.7664 9.12057 5.27398 9.63999 5.78139 10.1592C5.86081 10.2405 5.94023 10.3218 6.01933 10.4033C6.6482 11.0516 7.33213 11.6346 8.11133 12.0981C9.01239 12.634 9.96429 12.9331 11.0302 12.7552C11.6907 12.645 12.2306 12.3628 12.5906 11.7813C12.5942 11.7755 12.5977 11.7697 12.6013 11.7639C12.6315 11.715 12.6619 11.6659 12.6968 11.6205C12.862 11.406 12.8155 11.0766 12.6519 10.9072C12.6027 10.8563 12.5535 10.8054 12.5044 10.7544C12.0176 10.2503 11.5308 9.74609 11.0329 9.25305C10.7886 9.0111 10.5191 9.01231 10.2549 9.23158C9.95821 9.47779 9.67043 9.73497 9.38314 9.99225C9.3232 10.0459 9.28064 10.0616 9.20781 10.0161C9.08178 9.93721 8.95394 9.86107 8.82612 9.78494C8.60537 9.65346 8.38467 9.52201 8.17344 9.37673Z" fill="#26AD4F"/>
    </symbol>

    <symbol id="location" viewBox="0 0 14 14">
        <path d="M13.467 0.931611L9.28839 13.4683C9.26689 13.5332 9.22595 13.5899 9.17113 13.6307C9.11631 13.6716 9.05026 13.6945 8.98192 13.6966C8.91359 13.6986 8.84629 13.6796 8.78913 13.6421C8.73198 13.6046 8.68773 13.5504 8.66239 13.4869L6.33373 7.66494L0.433732 4.71494C0.373652 4.68492 0.324043 4.63746 0.291403 4.57876C0.258762 4.52006 0.244615 4.45288 0.250812 4.386C0.257009 4.31913 0.283263 4.25568 0.326135 4.20399C0.369005 4.15229 0.426493 4.11474 0.491065 4.09628L13.0597 0.504944C13.1181 0.488309 13.1799 0.487937 13.2385 0.503868C13.2971 0.5198 13.3502 0.55143 13.3921 0.595344C13.4341 0.639259 13.4632 0.69379 13.4764 0.753051C13.4896 0.812313 13.4864 0.874054 13.467 0.931611Z"/>
    </symbol>

    <symbol id="arrow" viewBox="0 0 12 6">
        <path d="M6 4.18934L1.8413 0.21967C1.53446 -0.0732237 1.03697 -0.0732238 0.730131 0.219669C0.423291 0.512563 0.423291 0.987437 0.730131 1.28033L5.44442 5.78033C5.75126 6.07322 6.24874 6.07322 6.55558 5.78033L11.2699 1.28033C11.5767 0.987438 11.5767 0.512564 11.2699 0.219671C10.963 -0.0732225 10.4655 -0.0732226 10.1587 0.219671L6 4.18934Z"/>
    </symbol>
</svg>
